<?xml version="1.0" standalone="no"?>
<!DOCTYPE svg PUBLIC "-//W3C//DTD SVG 20010904//EN"
 "http://www.w3.org/TR/2001/REC-SVG-20010904/DTD/svg10.dtd">
<svg version="1.0" xmlns="http://www.w3.org/2000/svg"
 width="512.000000pt" height="512.000000pt" viewBox="0 0 512.000000 512.000000"
 preserveAspectRatio="xMidYMid meet">

<g transform="translate(0.000000,512.000000) scale(0.100000,-0.100000)"
fill="#000000" stroke="none">
<path d="M2330 5110 c-493 -48 -950 -230 -1350 -538 -195 -150 -448 -432 -594
-662 -63 -99 -186 -351 -230 -471 -49 -134 -102 -340 -128 -499 -31 -195 -31
-565 0 -760 45 -276 116 -498 237 -745 131 -267 269 -460 485 -676 210 -210
387 -342 635 -470 563 -292 1211 -365 1824 -204 180 48 297 92 476 180 269
132 460 269 681 489 220 221 357 412 489 681 88 179 132 296 180 476 63 240
78 371 78 649 0 278 -15 409 -78 649 -48 180 -92 297 -180 476 -132 269 -269
460 -489 681 -221 220 -412 357 -681 489 -246 121 -474 193 -740 235 -147 23
-475 34 -615 20z m440 -191 c916 -83 1699 -688 2019 -1558 47 -128 94 -315
118 -471 24 -159 24 -501 0 -660 -63 -408 -210 -762 -453 -1090 -96 -130 -337
-373 -465 -468 -342 -254 -694 -398 -1134 -463 -114 -17 -482 -17 -590 0 -451
69 -793 209 -1134 463 -123 92 -367 336 -459 459 -702 943 -627 2227 178 3063
507 527 1205 791 1920 725z"/>
<path d="M2395 4714 c-287 -30 -520 -92 -749 -198 -451 -210 -852 -616 -1055
-1071 -262 -589 -250 -1260 34 -1834 158 -317 370 -572 645 -777 138 -102 344
-224 357 -211 2 3 17 256 33 564 16 307 31 597 35 644 l6 86 -90 32 c-112 41
-194 95 -270 177 -178 194 -274 501 -258 824 22 453 384 870 755 870 102 0
237 -46 341 -118 122 -83 268 -267 330 -415 61 -147 75 -225 75 -397 0 -324
-87 -580 -263 -772 -69 -75 -152 -128 -262 -168 l-89 -32 1 -36 c0 -20 17
-347 37 -727 l37 -690 55 -12 c271 -61 581 -65 858 -12 131 25 283 69 287 83
4 12 65 1199 65 1252 0 29 -4 33 -60 52 -97 33 -189 90 -267 167 -118 116
-118 118 -117 440 0 149 6 335 13 415 14 169 75 750 92 880 l12 90 68 0 69 0
0 -725 0 -725 65 0 65 0 0 725 0 725 75 0 75 0 0 -725 0 -725 65 0 65 0 0 725
0 725 75 0 75 0 0 -725 0 -725 65 0 65 0 0 725 0 725 54 0 53 0 12 -90 c17
-130 78 -711 92 -880 7 -80 13 -266 13 -415 1 -322 1 -324 -117 -440 -78 -77
-170 -134 -267 -167 l-60 -21 0 -56 c0 -31 11 -267 25 -526 14 -259 25 -482
25 -497 0 -16 3 -28 8 -28 4 0 46 26 94 57 522 348 859 874 955 1493 24 158
24 473 -1 625 -106 656 -474 1202 -1039 1544 -222 134 -504 234 -777 276 -102
15 -405 27 -485 19z"/>
<path d="M1352 3183 c-82 -116 -142 -344 -129 -492 12 -144 101 -352 195 -452
58 -63 163 -139 193 -139 36 0 29 22 -32 103 -72 94 -109 171 -170 347 l-43
125 1 160 c0 119 4 179 18 235 10 41 18 88 19 105 1 40 -26 44 -52 8z"/>
</g>
</svg>
